Coordinates
version=1
nRows=41
nColumns=38
inDegrees=no

Units are S.I. units (second, meters, Newtons, ...)
If the header above contains a line with 'inDegrees', this indicates whether rotational values are in degrees (yes) or radians (no).

endheader
time	pelvis_tilt	pelvis_list	pelvis_rotation	pelvis_tx	pelvis_ty	pelvis_tz	hip_flexion_r	hip_adduction_r	hip_rotation_r	knee_angle_r	ankle_angle_r	subtalar_angle_r	mtp_angle_r	hip_flexion_l	hip_adduction_l	hip_rotation_l	knee_angle_l	ankle_angle_l	subtalar_angle_l	mtp_angle_l	lumbar_extension	lumbar_bending	lumbar_rotation	arm_flex_r	arm_add_r	arm_rot_r	elbow_flex_r	pro_sup_r	wrist_flex_r	wrist_dev_r	arm_flex_l	arm_add_l	arm_rot_l	elbow_flex_l	pro_sup_l	wrist_flex_l	wrist_dev_l
14.67	2.92956	1.316	1.73599	0.746607	0.130777	1.01594	0.436969	-0.106181	0.228203	0.529171	-0.117011	0	0	0.164246	0.0914919	-0.0743437	0.115131	-0.279587	0	0	-0.261017	-0.0751445	0.171399	0.462316	-0.502267	0.233001	0.838733	0.976971	0	0	0.976716	-0.193026	1.5708	0.522245	0.591307	0	0
14.68	2.93445	1.31629	1.7321	0.747436	0.129361	1.01594	0.440657	-0.101799	0.240374	0.542411	-0.11532	0	0	0.161517	0.0909712	-0.0733362	0.112748	-0.280058	0	0	-0.264818	-0.0691919	0.182693	0.479007	-0.603933	0.429448	0.884696	0.814818	0	0	0.972514	-0.176891	1.5708	0.509863	0.60793	0	0
14.69	2.94094	1.3136	1.72679	0.748144	0.127753	1.01579	0.447602	-0.096537	0.254218	0.556399	-0.115143	0	0	0.162096	0.0904705	-0.0717425	0.110681	-0.280732	0	0	-0.26166	-0.0677391	0.186942	0.459483	-0.599791	0.394083	0.891021	0.840742	0	0	0.968153	-0.169412	1.5708	0.504228	0.617056	0	0
14.7	2.94657	1.31074	1.72217	0.748832	0.126111	1.01562	0.455578	-0.0913675	0.267745	0.57251	-0.115501	0	0	0.162989	0.0902565	-0.0703332	0.108807	-0.280969	0	0	-0.258324	-0.0664331	0.190845	0.44215	-0.59584	0.362867	0.896875	0.863	0	0	0.964168	-0.162438	1.5708	0.498714	0.624567	0	0
14.71	2.95075	1.30721	1.71871	0.749501	0.124455	1.01536	0.465123	-0.0863905	0.281362	0.590089	-0.115689	0	0	0.164581	0.0905224	-0.0686612	0.107237	-0.281214	0	0	-0.254095	-0.0656828	0.194926	0.425895	-0.592166	0.334621	0.902722	0.882471	0	0	0.96052	-0.155784	1.5708	0.493498	0.632223	0	0
14.72	2.9544	1.30289	1.71568	0.750155	0.122769	1.01502	0.476156	-0.0812363	0.294748	0.608398	-0.115827	0	0	0.167052	0.0910294	-0.0666949	0.105934	-0.281396	0	0	-0.248693	-0.0652532	0.199121	0.410058	-0.58882	0.308806	0.908798	0.899823	0	0	0.956958	-0.149879	1.5708	0.489383	0.640061	0	0
14.73	2.95787	1.2983	1.71268	0.750775	0.121062	1.01466	0.488062	-0.0757322	0.307356	0.627496	-0.116231	0	0	0.169922	0.0915268	-0.0648303	0.104829	-0.281581	0	0	-0.242651	-0.064967	0.203304	0.39468	-0.585464	0.284723	0.914607	0.916359	0	0	0.953367	-0.145126	1.5708	0.486941	0.64726	0	0
14.74	2.9606	1.29402	1.71034	0.751366	0.119358	1.0143	0.500372	-0.0702662	0.318328	0.647649	-0.116806	0	0	0.172455	0.0921137	-0.0629026	0.103751	-0.281623	0	0	-0.236751	-0.0648318	0.2071	0.379856	-0.582003	0.26174	0.920146	0.933091	0	0	0.949873	-0.141816	1.5708	0.48654	0.653989	0	0
14.75	2.9635	1.29025	1.7081	0.75198	0.117611	1.01396	0.512458	-0.064812	0.327053	0.667899	-0.11688	0	0	0.174407	0.0925498	-0.0611449	0.102713	-0.281624	0	0	-0.231255	-0.064128	0.210203	0.36572	-0.578189	0.239176	0.925147	0.950542	0	0	0.945988	-0.139466	1.5708	0.4874	0.66019	0	0
14.76	2.96682	1.28736	1.7058	0.752597	0.1158	1.01369	0.523866	-0.0594338	0.33295	0.688007	-0.116693	0	0	0.175171	0.0927043	-0.0593735	0.101307	-0.281573	0	0	-0.226655	-0.0627899	0.212701	0.352113	-0.574106	0.216562	0.929793	0.968841	0	0	0.941768	-0.137511	1.5708	0.488916	0.66556	0	0
14.77	2.97011	1.28532	1.70349	0.753119	0.11393	1.01349	0.534627	-0.0541238	0.336853	0.708106	-0.115986	0	0	0.174728	0.0925576	-0.0578985	0.0994106	-0.281758	0	0	-0.223133	-0.0612626	0.214832	0.339517	-0.569953	0.195312	0.933966	0.986275	0	0	0.93758	-0.136066	1.5708	0.490884	0.66973	0	0
14.78	2.97371	1.28438	1.70111	0.753626	0.112013	1.01342	0.544225	-0.049134	0.338321	0.727208	-0.11488	0	0	0.17281	0.0921453	-0.0561226	0.0969539	-0.28223	0	0	-0.221042	-0.0592976	0.216348	0.328106	-0.565935	0.175852	0.937982	1.00148	0	0	0.933666	-0.134992	1.5708	0.493229	0.673137	0	0
14.79	2.97732	1.28417	1.69862	0.754059	0.11005	1.01342	0.552859	-0.0444447	0.338273	0.744867	-0.113191	0	0	0.169871	0.0915253	-0.0545042	0.0941302	-0.282926	0	0	-0.21993	-0.0572024	0.217526	0.317883	-0.562372	0.159203	0.941984	1.01345	0	0	0.930138	-0.13425	1.5708	0.495774	0.675983	0	0
14.8	2.98153	1.28462	1.69539	0.754401	0.108062	1.01351	0.560511	-0.0399073	0.337159	0.760285	-0.111037	0	0	0.166154	0.0905461	-0.0531173	0.0911751	-0.283631	0	0	-0.219611	-0.0548218	0.21851	0.308649	-0.559073	0.144874	0.945995	1.02166	0	0	0.92703	-0.133721	1.5708	0.498281	0.677937	0	0
14.81	2.98585	1.28543	1.69182	0.754664	0.106074	1.01364	0.567565	-0.0358668	0.335585	0.773521	-0.109073	0	0	0.162012	0.0893847	-0.051811	0.0883835	-0.284155	0	0	-0.219745	-0.0524383	0.219522	0.300294	-0.55658	0.133536	0.950095	1.02616	0	0	0.924553	-0.133545	1.5708	0.501213	0.678857	0	0
14.82	2.99036	1.28604	1.68803	0.754917	0.104063	1.01375	0.574472	-0.0324935	0.333231	0.784485	-0.104982	0	0	0.15772	0.0882536	-0.0498416	0.0847751	-0.285455	0	0	-0.219422	-0.0498905	0.221494	0.289485	-0.551544	0.1145	0.954952	1.04814	0	0	0.920661	-0.131231	1.5708	0.499575	0.682136	0	0
14.83	2.9957	1.28707	1.68335	0.755203	0.102049	1.0139	0.58047	-0.0294339	0.329985	0.792589	-0.10537	0	0	0.153562	0.0869094	-0.0490329	0.0824495	-0.285364	0	0	-0.219477	-0.0471845	0.2219	0.283345	-0.55139	0.111267	0.958472	1.03649	0	0	0.918053	-0.132293	1.5708	0.502498	0.682023	0	0
14.84	3.00067	1.28775	1.67898	0.755452	0.100046	1.01401	0.586814	-0.0271007	0.32636	0.798576	-0.103557	0	0	0.149813	0.0857802	-0.0481526	0.0799558	-0.285891	0	0	-0.219117	-0.0447634	0.222706	0.27551	-0.548242	0.100737	0.9621	1.04291	0	0	0.915408	-0.133283	1.5708	0.504794	0.683332	0	0
14.85	3.00575	1.28806	1.67445	0.755674	0.0980667	1.01405	0.593611	-0.0251759	0.321993	0.802912	-0.101663	0	0	0.146473	0.0846366	-0.0470717	0.0773245	-0.286299	0	0	-0.218296	-0.042463	0.223642	0.26768	-0.545181	0.0904957	0.96575	1.05011	0	0	0.912669	-0.134954	1.5708	0.5083	0.684969	0	0
14.86	3.01108	1.28795	1.66968	0.755902	0.0960855	1.01403	0.600513	-0.0236347	0.317377	0.805022	-0.0999784	0	0	0.143776	0.0835237	-0.0461204	0.0750143	-0.286565	0	0	-0.216944	-0.0400863	0.224371	0.260061	-0.541878	0.0804791	0.969296	1.05786	0	0	0.909739	-0.136646	1.5708	0.512043	0.686484	0	0
14.87	3.0164	1.28747	1.66482	0.756104	0.0941138	1.01398	0.607586	-0.0225098	0.313133	0.80518	-0.098627	0	0	0.141764	0.0824859	-0.0455807	0.0730295	-0.28673	0	0	-0.215187	-0.0377309	0.225131	0.252402	-0.538683	0.0708412	0.973059	1.0659	0	0	0.906569	-0.13857	1.5708	0.516183	0.687878	0	0
14.88	3.02239	1.28664	1.65924	0.756255	0.0921422	1.0139	0.614736	-0.0213555	0.309494	0.803312	-0.0981753	0	0	0.140228	0.081084	-0.0452297	0.0712357	-0.286724	0	0	-0.213087	-0.035193	0.22586	0.24463	-0.535127	0.0608156	0.976976	1.07441	0	0	0.903175	-0.140923	1.5708	0.520856	0.689004	0	0
14.89	3.02891	1.28568	1.65307	0.756349	0.0901871	1.01381	0.621804	-0.0201631	0.30646	0.799859	-0.0987437	0	0	0.138885	0.0793598	-0.0447745	0.0696338	-0.286429	0	0	-0.210887	-0.0325848	0.226869	0.236724	-0.531699	0.0508224	0.980773	1.08331	0	0	0.899531	-0.1432	1.5708	0.525717	0.6901	0	0
14.9	3.03549	1.28468	1.6468	0.756391	0.0882373	1.01371	0.628568	-0.0190415	0.304204	0.794386	-0.100484	0	0	0.137533	0.0775497	-0.043996	0.0683067	-0.286275	0	0	-0.208646	-0.030053	0.228145	0.228768	-0.528271	0.0406142	0.984097	1.09244	0	0	0.89574	-0.145185	1.5708	0.530402	0.691199	0	0
14.91	3.04206	1.28364	1.64039	0.756392	0.0862656	1.01361	0.635136	-0.0180723	0.302772	0.787538	-0.103281	0	0	0.135979	0.075717	-0.0429949	0.0667897	-0.286606	0	0	-0.206437	-0.0274894	0.229361	0.221226	-0.525111	0.0312226	0.987054	1.10154	0	0	0.8922	-0.147307	1.5708	0.535188	0.692305	0	0
14.92	3.04833	1.28257	1.63414	0.756362	0.0842661	1.01351	0.64142	-0.0171406	0.302064	0.77924	-0.107043	0	0	0.134486	0.074059	-0.0425397	0.0651395	-0.286867	0	0	-0.204148	-0.0251327	0.230611	0.213813	-0.5216	0.0214352	0.989841	1.11069	0	0	0.888603	-0.149463	1.5708	0.539844	0.693365	0	0
14.93	3.05418	1.28147	1.62821	0.756308	0.0822691	1.0134	0.647503	-0.0163514	0.30197	0.769559	-0.111655	0	0	0.133071	0.0725211	-0.042393	0.0635765	-0.286731	0	0	-0.201888	-0.0230994	0.231924	0.206661	-0.518335	0.0122873	0.992542	1.11968	0	0	0.885182	-0.151719	1.5708	0.544786	0.694474	0	0
14.94	3.05996	1.28026	1.62229	0.756252	0.0802715	1.01328	0.653539	-0.0158841	0.302185	0.758864	-0.116704	0	0	0.131703	0.0708663	-0.0423146	0.062296	-0.286025	0	0	-0.199572	-0.0211428	0.233143	0.199754	-0.514915	0.00311786	0.995212	1.12855	0	0	0.881901	-0.154152	1.5708	0.550114	0.695627	0	0
14.95	3.06533	1.27879	1.61681	0.75619	0.0782854	1.01313	0.659668	-0.0157063	0.302643	0.747103	-0.12224	0	0	0.130706	0.0694313	-0.0420407	0.0607588	-0.286174	0	0	-0.197078	-0.0193641	0.234197	0.193063	-0.511982	-0.00496999	0.998191	1.13685	0	0	0.878773	-0.156739	1.5708	0.55575	0.696706	0	0
14.96	3.0698	1.27722	1.61216	0.756107	0.0762914	1.01295	0.665657	-0.015819	0.30332	0.734434	-0.128441	0	0	0.129768	0.0682254	-0.0416294	0.0592506	-0.286374	0	0	-0.194529	-0.0179263	0.235329	0.186208	-0.509123	-0.0128804	1.0016	1.14458	0	0	0.875628	-0.159339	1.5708	0.561345	0.69815	0	0
14.97	3.07407	1.27577	1.60775	0.755998	0.0742719	1.01275	0.671145	-0.015796	0.304453	0.72055	-0.135811	0	0	0.128569	0.0669049	-0.040696	0.057789	-0.286177	0	0	-0.192118	-0.0165839	0.236506	0.179153	-0.506536	-0.0202983	1.00548	1.1515	0	0	0.872521	-0.162405	1.5708	0.567336	0.699777	0	0
14.98	3.07841	1.27437	1.60336	0.755894	0.072213	1.01256	0.676361	-0.0156924	0.306667	0.706523	-0.144479	0	0	0.127151	0.0654645	-0.0394325	0.0563017	-0.28592	0	0	-0.189839	-0.015124	0.237575	0.171984	-0.503742	-0.0279375	1.00966	1.15803	0	0	0.869476	-0.165689	1.5708	0.573438	0.701295	0	0
14.99	3.08227	1.27284	1.5994	0.755777	0.0701223	1.01235	0.681568	-0.0160777	0.308366	0.692055	-0.153672	0	0	0.12587	0.0642059	-0.0382913	0.0546607	-0.285831	0	0	-0.187466	-0.0137415	0.238748	0.164521	-0.501083	-0.0353159	1.01397	1.16453	0	0	0.866519	-0.169093	1.5708	0.579693	0.702695	0	0
15	3.08569	1.27109	1.59585	0.755633	0.0679932	1.0121	0.686535	-0.0168771	0.308935	0.676464	-0.162028	0	0	0.124769	0.0631362	-0.0372671	0.0530588	-0.285886	0	0	-0.184875	-0.0124122	0.240004	0.156713	-0.498358	-0.0425561	1.01813	1.17088	0	0	0.863629	-0.172613	1.5708	0.586146	0.704024	0	0
15.01	3.08868	1.26914	1.59255	0.755433	0.0658375	1.01183	0.691316	-0.0179751	0.308459	0.659912	-0.1692	0	0	0.12365	0.0621817	-0.0363908	0.0511906	-0.286261	0	0	-0.182052	-0.0112297	0.24164	0.148574	-0.495641	-0.0496101	1.02212	1.17693	0	0	0.860661	-0.176011	1.5708	0.592647	0.705623	0	0
15.02	3.09136	1.26692	1.58947	0.755163	0.0636492	1.01152	0.695833	-0.019327	0.307292	0.642379	-0.175087	0	0	0.122586	0.0612315	-0.0357917	0.0489833	-0.286642	0	0	-0.178967	-0.0103633	0.243227	0.140347	-0.491663	-0.0580146	1.0259	1.18346	0	0	0.857639	-0.179932	1.5708	0.59977	0.707519	0	0
15.03	3.09371	1.26428	1.58667	0.754826	0.0614244	1.01116	0.700393	-0.0206715	0.305734	0.624043	-0.180229	0	0	0.121824	0.0603005	-0.0355006	0.0464441	-0.286877	0	0	-0.1754	-0.00972975	0.244858	0.131985	-0.487637	-0.06599	1.0298	1.19012	0	0	0.854386	-0.184001	1.5708	0.606921	0.709576	0	0
15.04	3.09555	1.26177	1.58464	0.754511	0.0591515	1.01077	0.704679	-0.0220858	0.303003	0.605092	-0.185152	0	0	0.120868	0.0595614	-0.0355139	0.043623	-0.286256	0	0	-0.171952	-0.00921753	0.246277	0.123529	-0.483826	-0.0736026	1.03387	1.19657	0	0	0.851002	-0.187834	1.5708	0.613793	0.711775	0	0
15.05	3.09683	1.2595	1.58341	0.754226	0.0568408	1.01037	0.708464	-0.0242181	0.298796	0.585964	-0.190378	0	0	0.11939	0.0590393	-0.0354636	0.0404272	-0.285073	0	0	-0.168743	-0.00880782	0.247665	0.114912	-0.480313	-0.0811099	1.03814	1.20256	0	0	0.847552	-0.191311	1.5708	0.620327	0.714071	0	0
15.06	3.09811	1.25748	1.58243	0.753942	0.0544581	1.00995	0.711364	-0.0270861	0.293055	0.566723	-0.195823	0	0	0.11744	0.0585659	-0.0351437	0.037241	-0.284192	0	0	-0.165753	-0.00834754	0.249019	0.106037	-0.47655	-0.0894571	1.04262	1.20848	0	0	0.844118	-0.194646	1.5708	0.626692	0.716356	0	0
15.07	3.09881	1.25569	1.58233	0.753651	0.0519981	1.00953	0.713261	-0.0305029	0.286269	0.54651	-0.201189	0	0	0.114922	0.0582998	-0.0343909	0.0336736	-0.284043	0	0	-0.162846	-0.0080902	0.250421	0.0964956	-0.472871	-0.0983074	1.04758	1.21445	0	0	0.840735	-0.197707	1.5708	0.632972	0.718554	0	0
